<svg width="145.36px" height="29.3px" viewBox="0 0 377 77" fill="none" xmlns="http://www.w3.org/2000/svg">
	<path d="M23.0316 61.0012C19.7316 61.0012 16.7316 60.5012 13.9316 59.5012C11.1316 58.5012 8.83163 57.0011 6.83163 55.1011C4.83163 53.1011 3.23165 50.8011 2.13165 48.1011C1.03165 45.4011 0.431641 42.3012 0.431641 38.9012C0.431641 35.5012 1.33163 30.8011 3.23163 27.6011C5.13163 24.4011 7.63163 22.0012 10.8316 20.2012C14.0316 18.5012 17.6317 17.6011 21.6317 17.6011C25.6317 17.6011 26.0316 18.0012 28.0316 18.7012C30.0316 19.4012 31.8316 20.4011 33.4316 21.6011C35.0316 22.8011 36.3316 24.3012 37.2316 26.0012H37.4316V0.701172H45.3316V39.1011C45.3316 43.7011 44.3316 47.7012 42.3316 50.9012C40.3316 54.2012 37.7316 56.7012 34.3316 58.4012C30.9316 60.1012 27.2316 61.0012 22.9316 61.0012H23.0316ZM23.0316 54.6011C25.7316 54.6011 28.1316 54.0012 30.3316 52.7012C32.5316 51.5012 34.2316 49.7012 35.5316 47.4012C36.8316 45.1012 37.4316 42.4012 37.4316 39.4012C37.4316 36.4012 36.8316 33.5012 35.5316 31.2012C34.2316 28.9012 32.5316 27.1012 30.3316 25.9012C28.1316 24.7012 25.7316 24.0012 22.9316 24.0012C20.1316 24.0012 17.8317 24.7012 15.6317 26.0012C13.4317 27.3012 11.7316 29.1012 10.4316 31.4012C9.13164 33.7012 8.53165 36.3012 8.53165 39.4012C8.53165 42.5012 9.23165 45.3012 10.5316 47.5012C11.8316 49.8012 13.6316 51.5011 15.8316 52.8011C18.0316 54.0011 20.4317 54.7012 23.1317 54.7012L23.0316 54.6011Z" fill="white" />
	<path d="M92.6313 60.1011C87.8313 60.1011 83.6312 59.2012 79.8312 57.5012C76.1312 55.8012 73.2313 53.4011 71.1313 50.3011C69.0313 47.2011 68.0312 43.5012 68.0312 39.4012C68.0312 35.3012 68.9312 31.6011 70.7312 28.3011C72.5312 25.0011 74.9313 22.4012 78.1313 20.5012C81.2313 18.6012 84.9313 17.7012 89.1313 17.7012C93.3313 17.7012 97.4312 18.6012 100.431 20.5012C103.431 22.3012 105.631 24.8012 107.131 27.9012C108.631 31.0012 109.331 34.5011 109.331 38.3011C109.331 42.1011 109.331 39.5012 109.331 40.2012C109.331 40.9012 109.231 41.4012 109.131 41.9012H76.6313C76.9313 44.4012 77.8312 46.6012 79.3312 48.4012C80.8312 50.2012 82.7312 51.5012 85.0312 52.4012C87.3312 53.3012 89.9312 53.7012 92.7312 53.7012H104.131V60.1011H92.9312H92.6313ZM76.3312 36.6011H101.231C101.231 35.6011 101.131 34.5011 100.931 33.3011C100.731 32.1011 100.331 31.0012 99.7312 29.9012C99.1312 28.8012 98.4312 27.8012 97.4312 26.9012C96.5312 26.0012 95.3312 25.3012 93.9312 24.7012C92.5312 24.2012 90.9312 23.9012 89.0312 23.9012C87.1313 23.9012 85.2312 24.3012 83.7312 25.0012C82.2312 25.7012 80.9312 26.7012 79.8312 27.9012C78.7312 29.1012 77.9312 30.5012 77.3312 32.0012C76.7312 33.5012 76.4312 35.0011 76.3312 36.6011Z" fill="white" />
	<path d="M152.631 61.0016C148.131 61.0016 144.231 60.0016 140.831 58.1016C137.431 56.2016 134.731 53.6016 132.731 50.3016C130.731 47.0016 129.731 43.3016 129.731 39.3016C129.731 35.3016 130.731 31.6016 132.731 28.3016C134.731 25.0016 137.431 22.4016 140.831 20.5016C144.231 18.6016 148.231 17.6016 152.631 17.6016C157.031 17.6016 161.031 18.6016 164.531 20.5016C168.031 22.4016 170.731 25.0016 172.631 28.3016C174.631 31.6016 175.631 35.3016 175.631 39.3016C175.631 43.3016 174.631 47.0016 172.631 50.3016C170.631 53.6016 167.931 56.2016 164.531 58.1016C161.031 60.0016 157.131 61.0016 152.631 61.0016ZM152.731 54.6016C155.731 54.6016 158.331 53.9016 160.531 52.6016C162.731 51.2016 164.531 49.4016 165.731 47.1016C167.031 44.8016 167.631 42.2016 167.631 39.3016C167.631 36.4016 167.031 33.8016 165.731 31.5016C164.431 29.2016 162.731 27.4016 160.531 26.0016C158.331 24.6016 155.731 24.0016 152.731 24.0016C149.731 24.0016 147.031 24.7016 144.831 26.0016C142.531 27.4016 140.831 29.2016 139.531 31.5016C138.231 33.8016 137.631 36.4016 137.631 39.3016C137.631 42.2016 138.231 44.8016 139.531 47.1016C140.831 49.4016 142.531 51.2016 144.831 52.6016C147.131 54.0016 149.731 54.6016 152.731 54.6016ZM148.731 76.6016V59.7016H156.531V76.6016H148.731Z" fill="white" />
	<path d="M216.631 61.0016C212.431 61.0016 208.731 60.0016 205.631 58.1016C202.531 56.2016 200.131 53.6016 198.531 50.3016C196.831 47.0016 196.031 43.3016 196.031 39.3016C196.031 35.3016 196.931 31.6016 198.731 28.3016C200.531 25.0016 203.231 22.4016 206.631 20.5016C210.031 18.6016 214.131 17.6016 218.931 17.6016C223.731 17.6016 227.531 18.5016 230.831 20.4016C234.131 22.3016 236.731 24.9016 238.531 28.1016C240.331 31.4016 241.231 35.0016 241.231 39.0016V60.0016H233.231V51.5016H233.031C232.131 53.1016 231.031 54.6016 229.531 56.0016C228.031 57.4016 226.231 58.6016 224.131 59.5016C221.931 60.4016 219.431 60.9016 216.531 60.9016L216.631 61.0016ZM218.731 54.6016C221.631 54.6016 224.131 53.9016 226.331 52.6016C228.531 51.3016 230.231 49.4016 231.431 47.1016C232.631 44.7016 233.231 42.1016 233.231 39.2016C233.231 36.3016 232.631 33.8016 231.431 31.5016C230.231 29.2016 228.631 27.4016 226.431 26.1016C224.231 24.8016 221.731 24.1016 218.831 24.1016C215.931 24.1016 213.131 24.8016 210.931 26.1016C208.731 27.5016 207.031 29.3016 205.831 31.6016C204.631 33.9016 204.031 36.5016 204.031 39.4016C204.031 42.3016 204.631 44.8016 205.731 47.1016C206.831 49.4016 208.531 51.2016 210.731 52.6016C212.931 54.0016 215.531 54.6016 218.631 54.6016H218.731Z" fill="white" />
	<path d="M286.732 61.0012C283.432 61.0012 280.432 60.5012 277.632 59.5012C274.832 58.5012 272.532 57.0011 270.532 55.1011C268.532 53.1011 266.932 50.8011 265.832 48.1011C264.732 45.4011 264.132 42.3012 264.132 38.9012C264.132 35.5012 265.032 30.8011 266.932 27.6011C268.832 24.4011 271.332 22.0012 274.532 20.2012C277.732 18.5012 281.332 17.6011 285.332 17.6011C289.332 17.6011 289.732 18.0012 291.732 18.7012C293.732 19.4012 295.532 20.4011 297.132 21.6011C298.732 22.8011 300.032 24.3012 300.932 26.0012H301.132V0.701172H309.032V39.1011C309.032 43.7011 308.032 47.7012 306.032 50.9012C304.032 54.2012 301.432 56.7012 298.032 58.4012C294.632 60.1012 290.932 61.0012 286.632 61.0012H286.732ZM286.732 54.6011C289.432 54.6011 291.832 54.0012 294.032 52.7012C296.232 51.5012 297.932 49.7012 299.232 47.4012C300.532 45.1012 301.132 42.4012 301.132 39.4012C301.132 36.4012 300.532 33.5012 299.232 31.2012C297.932 28.9012 296.232 27.1012 294.032 25.9012C291.832 24.7012 289.432 24.0012 286.632 24.0012C283.832 24.0012 281.532 24.7012 279.332 26.0012C277.132 27.3012 275.432 29.1012 274.132 31.4012C272.832 33.7012 272.232 36.3012 272.232 39.4012C272.232 42.5012 272.932 45.3012 274.232 47.5012C275.532 49.8012 277.332 51.5011 279.532 52.8011C281.732 54.0011 284.132 54.7012 286.832 54.7012L286.732 54.6011Z" fill="white" />
	<path d="M352.331 61.0016C348.131 61.0016 344.431 60.0016 341.331 58.1016C338.231 56.2016 335.831 53.6016 334.231 50.3016C332.531 47.0016 331.731 43.3016 331.731 39.3016C331.731 35.3016 332.631 31.6016 334.431 28.3016C336.231 25.0016 338.931 22.4016 342.331 20.5016C345.731 18.6016 349.831 17.6016 354.631 17.6016C359.431 17.6016 363.231 18.5016 366.531 20.4016C369.831 22.3016 372.431 24.9016 374.231 28.1016C376.031 31.4016 376.931 35.0016 376.931 39.0016V60.0016H368.931V51.5016H368.731C367.831 53.1016 366.731 54.6016 365.231 56.0016C363.731 57.4016 361.931 58.6016 359.831 59.5016C357.631 60.4016 355.131 60.9016 352.231 60.9016L352.331 61.0016ZM354.431 54.6016C357.331 54.6016 359.831 53.9016 362.031 52.6016C364.231 51.3016 365.931 49.4016 367.131 47.1016C368.331 44.7016 368.931 42.1016 368.931 39.2016C368.931 36.3016 368.331 33.8016 367.131 31.5016C365.931 29.2016 364.331 27.4016 362.131 26.1016C359.931 24.8016 357.431 24.1016 354.531 24.1016C351.631 24.1016 348.831 24.8016 346.631 26.1016C344.431 27.5016 342.731 29.3016 341.531 31.6016C340.331 33.9016 339.731 36.5016 339.731 39.4016C339.731 42.3016 340.331 44.8016 341.431 47.1016C342.531 49.4016 344.231 51.2016 346.431 52.6016C348.631 54.0016 351.231 54.6016 354.331 54.6016H354.431Z" fill="white" />
</svg>
