<svg width="24" height="25" viewBox="0 0 24 25" fill="none" xmlns="http://www.w3.org/2000/svg">
	<path d="M20 4.73584H4C2.9 4.73584 2 5.63584 2 6.73584V18.7358C2 19.8358 2.9 20.7358 4 20.7358H20C21.1 20.7358 22 19.8358 22 18.7358V6.73584C22 5.63584 21.1 4.73584 20 4.73584ZM19.6 8.98584L13.06 13.0758C12.41 13.4858 11.59 13.4858 10.94 13.0758L4.4 8.98584C4.29973 8.92955 4.21192 8.8535 4.14189 8.76229C4.07186 8.67109 4.02106 8.56662 3.99258 8.45521C3.96409 8.3438 3.9585 8.22778 3.97616 8.11415C3.99381 8.00052 4.03434 7.89165 4.09528 7.79414C4.15623 7.69663 4.23632 7.6125 4.33073 7.54683C4.42513 7.48117 4.53187 7.43535 4.6445 7.41214C4.75712 7.38893 4.87328 7.38881 4.98595 7.41179C5.09863 7.43477 5.20546 7.48037 5.3 7.54584L12 11.7358L18.7 7.54584C18.7945 7.48037 18.9014 7.43477 19.014 7.41179C19.1267 7.38881 19.2429 7.38893 19.3555 7.41214C19.4681 7.43535 19.5749 7.48117 19.6693 7.54683C19.7637 7.6125 19.8438 7.69663 19.9047 7.79414C19.9657 7.89165 20.0062 8.00052 20.0238 8.11415C20.0415 8.22778 20.0359 8.3438 20.0074 8.45521C19.9789 8.56662 19.9281 8.67109 19.8581 8.76229C19.7881 8.8535 19.7003 8.92955 19.6 8.98584Z" fill="#F6F6F6" />
</svg>
