<svg width="11" height="167" viewBox="0 0 11 167" fill="none" xmlns="http://www.w3.org/2000/svg">
	<path d="M5.5 106L5.5 0" stroke="#9B9C9D" />
	<path opacity="0.8" d="M3.496 118.252L3.496 119.452C2.984 119.508 2.592 119.676 2.32 119.956C2.048 120.236 1.912 120.612 1.912 121.084C1.912 121.316 1.948 121.528 2.02 121.72C2.1 121.912 2.208 122.076 2.344 122.212C2.48 122.348 2.64 122.456 2.824 122.536C3.016 122.616 3.224 122.656 3.448 122.656C3.696 122.656 3.908 122.612 4.084 122.524C4.268 122.436 4.424 122.308 4.552 122.14C4.688 121.972 4.808 121.764 4.912 121.516C5.016 121.276 5.116 121 5.212 120.688C5.332 120.312 5.468 119.988 5.62 119.716C5.772 119.444 5.94 119.22 6.124 119.044C6.316 118.876 6.532 118.752 6.772 118.672C7.02 118.592 7.292 118.552 7.588 118.552C7.94 118.552 8.264 118.616 8.56 118.744C8.856 118.872 9.112 119.044 9.328 119.26C9.544 119.484 9.712 119.748 9.832 120.052C9.96 120.356 10.024 120.688 10.024 121.048C10.024 121.416 9.964 121.752 9.844 122.056C9.732 122.368 9.568 122.632 9.352 122.848C9.144 123.072 8.888 123.248 8.584 123.376C8.28 123.504 7.948 123.572 7.588 123.58L7.588 122.404C8.004 122.372 8.336 122.232 8.584 121.984C8.832 121.744 8.956 121.428 8.956 121.036C8.956 120.644 8.828 120.324 8.572 120.076C8.324 119.828 8.008 119.704 7.624 119.704C7.448 119.704 7.288 119.732 7.144 119.788C7.008 119.844 6.884 119.936 6.772 120.064C6.66 120.192 6.552 120.36 6.448 120.568C6.352 120.784 6.256 121.044 6.16 121.348C6.024 121.788 5.872 122.164 5.704 122.476C5.544 122.788 5.36 123.04 5.152 123.232C4.944 123.432 4.708 123.576 4.444 123.664C4.18 123.752 3.88 123.796 3.544 123.796C3.16 123.796 2.804 123.728 2.476 123.592C2.148 123.456 1.86 123.264 1.612 123.016C1.372 122.776 1.184 122.488 1.048 122.152C0.912 121.824 0.844 121.464 0.844 121.072C0.844 120.672 0.904 120.304 1.024 119.968C1.152 119.632 1.332 119.34 1.564 119.092C1.804 118.844 2.084 118.648 2.404 118.504C2.732 118.36 3.096 118.276 3.496 118.252ZM3.016 130.07L3.016 131.342C2.288 130.99 1.744 130.546 1.384 130.01C1.024 129.474 0.844 128.838 0.844 128.102C0.844 127.598 0.932 127.13 1.108 126.698C1.284 126.266 1.528 125.886 1.84 125.558C2.16 125.238 2.528 124.986 2.944 124.802C3.368 124.618 3.824 124.526 4.312 124.526C4.792 124.526 5.24 124.618 5.656 124.802C6.08 124.986 6.444 125.234 6.748 125.546C7.06 125.866 7.304 126.238 7.48 126.662C7.656 127.094 7.744 127.554 7.744 128.042C7.744 128.802 7.548 129.474 7.156 130.058C6.764 130.642 6.22 131.066 5.524 131.33L5.524 130.07C5.916 129.846 6.212 129.562 6.412 129.218C6.612 128.874 6.712 128.478 6.712 128.03C6.712 127.694 6.648 127.382 6.52 127.094C6.4 126.806 6.232 126.554 6.016 126.338C5.8 126.13 5.544 125.966 5.248 125.846C4.96 125.726 4.644 125.666 4.3 125.666C3.956 125.666 3.636 125.726 3.34 125.846C3.052 125.974 2.796 126.146 2.572 126.362C2.356 126.578 2.184 126.83 2.056 127.118C1.936 127.414 1.876 127.73 1.876 128.066C1.876 128.498 1.964 128.866 2.14 129.17C2.316 129.474 2.608 129.774 3.016 130.07ZM0.999999 132.478L7.588 132.478L7.588 133.558L6.748 133.558C6.924 133.654 7.072 133.754 7.192 133.858C7.312 133.97 7.412 134.094 7.492 134.23C7.572 134.374 7.632 134.534 7.672 134.71C7.712 134.886 7.736 135.09 7.744 135.322L6.652 135.322C6.612 134.746 6.436 134.314 6.124 134.026C5.82 133.746 5.372 133.606 4.78 133.606L0.999999 133.606L0.999999 132.478ZM4.288 135.928C4.784 135.928 5.244 136.016 5.668 136.192C6.092 136.368 6.456 136.612 6.76 136.924C7.072 137.244 7.312 137.616 7.48 138.04C7.656 138.472 7.744 138.94 7.744 139.444C7.744 139.924 7.656 140.372 7.48 140.788C7.304 141.204 7.06 141.564 6.748 141.868C6.436 142.172 6.068 142.412 5.644 142.588C5.228 142.764 4.772 142.852 4.276 142.852C3.788 142.852 3.336 142.764 2.92 142.588C2.504 142.42 2.14 142.184 1.828 141.88C1.524 141.576 1.284 141.216 1.108 140.8C0.931999 140.384 0.843999 139.932 0.843999 139.444C0.843999 138.948 0.931999 138.484 1.108 138.052C1.284 137.628 1.524 137.256 1.828 136.936C2.14 136.624 2.504 136.376 2.92 136.192C3.344 136.016 3.8 135.928 4.288 135.928ZM1.876 139.432C1.876 139.76 1.936 140.064 2.056 140.344C2.176 140.624 2.34 140.864 2.548 141.064C2.764 141.272 3.02 141.432 3.316 141.544C3.612 141.664 3.932 141.724 4.276 141.724C4.628 141.724 4.952 141.664 5.248 141.544C5.552 141.432 5.812 141.268 6.028 141.052C6.244 140.844 6.412 140.596 6.532 140.308C6.652 140.02 6.712 139.708 6.712 139.372C6.712 139.044 6.648 138.74 6.52 138.46C6.4 138.18 6.232 137.936 6.016 137.728C5.8 137.528 5.54 137.368 5.236 137.248C4.94 137.128 4.624 137.068 4.288 137.068C3.944 137.068 3.624 137.128 3.328 137.248C3.04 137.368 2.788 137.532 2.572 137.74C2.356 137.956 2.184 138.208 2.056 138.496C1.936 138.784 1.876 139.096 1.876 139.432ZM0.999999 144.032L9.868 144.033L9.868 145.161L0.999999 145.16L0.999999 144.032ZM0.999999 146.599L9.868 146.599L9.868 147.727L0.999999 147.727L0.999999 146.599Z" fill="#9B9C9D" />
	<path d="M5.5 167L2 161L9 161L5.5 167Z" fill="#00AEFF" />
</svg>
