<svg width="22" height="18" viewBox="0 0 22 18" fill="none" xmlns="http://www.w3.org/2000/svg">
<path d="M19.7101 0.390348C19.7101 0.390348 21.6526 -0.367152 21.4901 1.47235C21.4366 2.22985 20.9511 4.88135 20.5731 7.74885L19.2781 16.2438C19.2781 16.2438 19.1701 17.4883 18.1986 17.7048C17.2276 17.9208 15.7706 16.9473 15.5006 16.7308C15.2846 16.5683 11.4536 14.1333 10.1046 12.9433C9.72665 12.6183 9.29465 11.9693 10.1586 11.2118L15.8246 5.80085C16.4721 5.15085 17.1196 3.63585 14.4216 5.47585L6.86665 10.6158C6.86665 10.6158 6.00315 11.1573 4.38465 10.6703L0.876647 9.58785C0.876647 9.58785 -0.418353 8.77635 1.79415 7.96485C7.19065 5.42185 13.8281 2.82485 19.7096 0.389848" fill="#F6F6F6"/>
</svg>
